<?xml version="1.0" encoding="UTF-8"?>
<!DOCTYPE svg PUBLIC "-//W3C//DTD SVG 1.1//EN" "http://www.w3.org/Graphics/SVG/1.1/DTD/svg11.dtd">
<!-- Creator: CorelDRAW -->
<svg xmlns="http://www.w3.org/2000/svg" xml:space="preserve" width="5in" height="3.33333in" style="shape-rendering:geometricPrecision; text-rendering:geometricPrecision; image-rendering:optimizeQuality; fill-rule:evenodd; clip-rule:evenodd"
viewBox="0 0 5 3.33333"
 xmlns:xlink="http://www.w3.org/1999/xlink">
 <defs>
  <style type="text/css">
   <![CDATA[
    .str0 {stroke:#B6C2FA;stroke-width:0.00694488}
    .fil8 {fill:none}
    .fil28 {fill:#6B809B}
    .fil29 {fill:black}
    .fil44 {fill:#096EB0}
    .fil31 {fill:#1B2131}
    .fil20 {fill:#1B2E4D}
    .fil3 {fill:#1F86D5}
    .fil5 {fill:#2DCDA9}
    .fil1 {fill:#454352}
    .fil22 {fill:#533952}
    .fil30 {fill:#6664A5}
    .fil36 {fill:#7E357A}
    .fil27 {fill:#8D633D}
    .fil35 {fill:#964591}
    .fil34 {fill:#B62439}
    .fil12 {fill:#B6C2FA}
    .fil40 {fill:#BBE593}
    .fil26 {fill:#C09F72}
    .fil6 {fill:#C2C9D3}
    .fil25 {fill:#C68F67}
    .fil41 {fill:#D0E3E9}
    .fil38 {fill:#D2981B}
    .fil9 {fill:#D6DFFE}
    .fil46 {fill:#E01F27}
    .fil14 {fill:#E2A57D}
    .fil11 {fill:#E7ECF4}
    .fil42 {fill:#EAC645}
    .fil0 {fill:#EDF2FB}
    .fil10 {fill:#EFF3F8}
    .fil16 {fill:#F9B7BB}
    .fil32 {fill:#FA3700}
    .fil37 {fill:#FEC226}
    .fil43 {fill:#FFB8E8}
    .fil4 {fill:#FFD263}
    .fil45 {fill:#FFD87D}
    .fil2 {fill:white}
    .fil39 {fill:#382353;fill-rule:nonzero}
    .fil7 {fill:#B6C2FA;fill-rule:nonzero}
    .fil33 {fill:white;fill-rule:nonzero}
    .fil24 {fill:url(#id0)}
    .fil13 {fill:url(#id1)}
    .fil21 {fill:url(#id2)}
    .fil17 {fill:url(#id3)}
    .fil18 {fill:url(#id4)}
    .fil19 {fill:url(#id5)}
    .fil23 {fill:url(#id6)}
    .fil15 {fill:url(#id7)}
   ]]>
  </style>
  <linearGradient id="id0" gradientUnits="userSpaceOnUse" x1="3.63983" y1="2.3032" x2="4.91176" y2="2.3032">
   <stop offset="0" style="stop-color:#93AAD2"/>
   <stop offset="1" style="stop-color:#ABBFDF"/>
  </linearGradient>
  <linearGradient id="id1" gradientUnits="userSpaceOnUse" x1="3.57547" y1="2.14608" x2="4.73319" y2="2.14608">
   <stop offset="0" style="stop-color:#8DA9D2"/>
   <stop offset="1" style="stop-color:#6A8BBE"/>
  </linearGradient>
  <linearGradient id="id2" gradientUnits="userSpaceOnUse" x1="4.02422" y1="1.88648" x2="4.25739" y2="2.39031">
   <stop offset="0" style="stop-color:#67D9FE"/>
   <stop offset="1" style="stop-color:#707EEB"/>
  </linearGradient>
  <linearGradient id="id3" gradientUnits="userSpaceOnUse" x1="3.9463" y1="2.3862" x2="4.135" y2="2.41451">
   <stop offset="0" style="stop-color:#2E2D3F"/>
   <stop offset="1" style="stop-color:#4E404F"/>
  </linearGradient>
  <linearGradient id="id4" gradientUnits="userSpaceOnUse" x1="3.34737" y1="2.56386" x2="4.25994" y2="2.70076">
   <stop offset="0" style="stop-color:#565565"/>
   <stop offset="1" style="stop-color:#2B2736"/>
  </linearGradient>
  <linearGradient id="id5" gradientUnits="userSpaceOnUse" xlink:href="#id3" x1="3.52624" y1="2.74722" x2="3.92094" y2="2.80643">
  </linearGradient>
  <linearGradient id="id6" gradientUnits="userSpaceOnUse" xlink:href="#id2" x1="4.297" y1="1.94403" x2="4.02686" y2="2.17086">
  </linearGradient>
  <linearGradient id="id7" gradientUnits="userSpaceOnUse" xlink:href="#id2" x1="4.0739" y1="1.9655" x2="3.9437" y2="2.07512">
  </linearGradient>
 </defs>
 <g id="Layer_x0020_1">
  <metadata id="CorelCorpID_0Corel-Layer"/>
  <rect class="fil0" width="5" height="3.33333"/>
  <g id="_404518016">
   <path id="_404519528" class="fil1" d="M0.22037 0.796756l2.5487 0 0 -0.160874c0,-0.0852795 -0.0697756,-0.155051 -0.155051,-0.155051l-2.2386 0c-0.0852756,0 -0.155051,0.0697717 -0.155051,0.155051l0 0.160874z"/>
   <path id="_404519216" class="fil2" d="M0.22037 0.796756l2.5487 0 0 2.28097c0,0.0161339 -0.0132047,0.0293268 -0.0293425,0.0293268l-2.49002 0c-0.0161378,0 -0.0293386,-0.0131929 -0.0293386,-0.0293268l0 -2.28097z"/>
   <rect id="_404519600" class="fil3" x="0.365734" y="0.990566" width="2.24441" height="0.48842"/>
   <rect id="_404519048" class="fil4" x="0.365734" y="1.60497" width="1.05631" height="0.48842"/>
   <rect id="_404518832" class="fil5" x="1.55383" y="1.60497" width="1.05631" height="0.48842"/>
   <circle id="_404518640" class="fil2" cx="2.57138" cy="0.638792" r="0.0629891"/>
   <circle id="_404518472" class="fil2" cx="2.37466" cy="0.638792" r="0.0629891"/>
   <circle id="_404518280" class="fil2" cx="2.17793" cy="0.638792" r="0.0629891"/>
   <rect id="_404518256" class="fil2" x="0.392875" y="0.575803" width="1.64114" height="0.125978" rx="0.0232598" ry="0.0232598"/>
   <rect id="_404518880" class="fil6" x="0.365736" y="2.27578" width="2.2444" height="0.106539"/>
   <rect id="_404518928" class="fil6" x="0.365736" y="2.53889" width="2.2444" height="0.106539"/>
   <rect id="_404517800" class="fil6" x="0.365736" y="2.802" width="2.2444" height="0.106539"/>
  </g>
  <g id="_396325832">
   <polygon id="_404517464" class="fil2" points="4.64049,1.91603 4.64049,0.676811 3.64739,0.676811 3.64739,1.91603 "/>
   <path id="_404518208" class="fil7" d="M3.62148 0.625l1.04491 0 0.0259094 0 0 0.0259055 0 1.29103 0 0.0259094 -0.0259094 0 -1.04491 0 -0.0259055 0 0 -0.0259094 0 -1.29103 0 -0.0259055 0.0259055 0zm1.01901 0.051811l-0.993098 0 0 1.23922 0.993098 0 0 -1.23922z"/>
   <line id="_404518160" class="fil8 str0" x1="3.73158" y1="0.767484" x2="3.73158" y2= "1.53174" />
   <rect id="_404517920" class="fil9" x="3.52217" y="0.737255" width="1.24353" height="0.0712461"/>
   <rect id="_404517872" class="fil9" x="3.52217" y="0.873268" width="1.24353" height="0.0712461"/>
   <g>
    <g>
     <rect id="_404518040" class="fil10" x="4.46223" y="1.12071" width="0.124627" height="0.225258"/>
     <rect id="_404517200" class="fil10" x="4.42972" y="1.37693" width="0.189651" height="0.556401"/>
     <rect id="_404516888" class="fil10" x="4.41501" y="1.34597" width="0.219064" height="0.0309634"/>
     <rect id="_404516864" class="fil10" x="4.44907" y="1.08975" width="0.150946" height="0.0309634"/>
     <rect id="_404517392" class="fil10" x="4.48932" y="0.962428" width="0.0704418" height="0.12732"/>
     <rect id="_404516840" class="fil2" x="4.53732" y="0.969394" width="0.00541887" height="0.113388"/>
     <rect id="_404517416" class="fil2" x="4.52184" y="0.969394" width="0.00541887" height="0.113388"/>
     <rect id="_404516408" class="fil2" x="4.50635" y="0.969394" width="0.00541887" height="0.113388"/>
     <rect id="_404516336" class="fil2" x="4.51409" y="1.13558" width="0.00541887" height="0.185614"/>
     <rect id="_404516264" class="fil2" x="4.49861" y="1.13558" width="0.00541887" height="0.185614"/>
     <rect id="_404516600" class="fil2" x="4.48313" y="1.13558" width="0.00541887" height="0.185614"/>
     <rect id="_404516144" class="fil2" x="4.56054" y="1.13558" width="0.00541887" height="0.185614"/>
     <rect id="_404516648" class="fil2" x="4.54506" y="1.13558" width="0.00541887" height="0.185614"/>
     <rect id="_404515424" class="fil2" x="4.52958" y="1.13558" width="0.00541887" height="0.185614"/>
     <rect id="_404515832" class="fil2" x="4.46765" y="1.41099" width="0.00541887" height="0.48828"/>
     <rect id="_404515880" class="fil2" x="4.45217" y="1.41099" width="0.00541887" height="0.48828"/>
     <rect id="_404515184" class="fil2" x="4.51409" y="1.41099" width="0.00541887" height="0.48828"/>
     <rect id="_404515208" class="fil2" x="4.49861" y="1.41099" width="0.00541887" height="0.48828"/>
     <rect id="_404515616" class="fil2" x="4.48313" y="1.41099" width="0.00541887" height="0.48828"/>
     <rect id="_404515664" class="fil2" x="4.56054" y="1.41099" width="0.00541887" height="0.48828"/>
     <rect id="_404515136" class="fil2" x="4.54506" y="1.41099" width="0.00541887" height="0.48828"/>
     <rect id="_404514752" class="fil2" x="4.52958" y="1.41099" width="0.00541887" height="0.48828"/>
     <rect id="_404514704" class="fil2" x="4.5915" y="1.41099" width="0.00541887" height="0.48828"/>
     <rect id="_404514632" class="fil2" x="4.57602" y="1.41099" width="0.00541887" height="0.48828"/>
    </g>
    <g>
     <rect id="_404514680" class="fil11" x="4.19072" y="1.2086" width="0.238883" height="0.724737"/>
     <polygon id="_404514272" class="fil11" points="4.19072,1.2086 4.4296,1.2086 4.40085,1.16977 4.22127,1.16977 "/>
     <rect id="_404514296" class="fil2" x="4.217" y="1.25" width="0.0782258" height="0.0377466"/>
     <rect id="_404514056" class="fil2" x="4.32509" y="1.25" width="0.0782258" height="0.0377466"/>
     <rect id="_404513960" class="fil2" x="4.217" y="1.31675" width="0.0782258" height="0.0377466"/>
     <rect id="_404513624" class="fil2" x="4.32509" y="1.31675" width="0.0782258" height="0.0377466"/>
     <rect id="_404513648" class="fil2" x="4.217" y="1.3835" width="0.0782258" height="0.0377466"/>
     <rect id="_404512880" class="fil2" x="4.32509" y="1.3835" width="0.0782258" height="0.0377466"/>
     <rect id="_404513312" class="fil2" x="4.217" y="1.45024" width="0.0782258" height="0.0377466"/>
     <rect id="_404513504" class="fil2" x="4.32509" y="1.45024" width="0.0782258" height="0.0377466"/>
     <rect id="_404513600" class="fil2" x="4.217" y="1.51699" width="0.0782258" height="0.0377466"/>
     <rect id="_404513072" class="fil2" x="4.32509" y="1.51699" width="0.0782258" height="0.0377466"/>
     <rect id="_404513168" class="fil2" x="4.217" y="1.58374" width="0.0782258" height="0.0377466"/>
     <rect id="_404512976" class="fil2" x="4.32509" y="1.58374" width="0.0782258" height="0.0377466"/>
     <rect id="_404512088" class="fil2" x="4.217" y="1.65049" width="0.0782258" height="0.0377466"/>
     <rect id="_404512736" class="fil2" x="4.32509" y="1.65049" width="0.0782258" height="0.0377466"/>
     <rect id="_404512112" class="fil2" x="4.217" y="1.71723" width="0.0782258" height="0.0377466"/>
     <rect id="_404512616" class="fil2" x="4.32509" y="1.71723" width="0.0782258" height="0.0377466"/>
     <rect id="_404512760" class="fil2" x="4.217" y="1.78398" width="0.0782258" height="0.0377466"/>
     <rect id="_404512688" class="fil2" x="4.32509" y="1.78398" width="0.0782258" height="0.0377466"/>
     <rect id="_396329480" class="fil2" x="4.217" y="1.85073" width="0.0782258" height="0.0377466"/>
     <rect id="_423564280" class="fil2" x="4.32509" y="1.85073" width="0.0782258" height="0.0377466"/>
    </g>
    <g>
     <rect id="_396327104" class="fil10" x="3.9078" y="1.35299" width="0.0890043" height="0.160871"/>
     <rect id="_396314192" class="fil10" x="3.88459" y="1.53597" width="0.135442" height="0.397363"/>
     <rect id="_396304784" class="fil10" x="3.87408" y="1.51386" width="0.156448" height="0.022113"/>
     <rect id="_396305144" class="fil10" x="3.89841" y="1.33087" width="0.107801" height="0.022113"/>
     <rect id="_396304976" class="fil10" x="3.92715" y="1.23995" width="0.0503071" height="0.0909278"/>
     <rect id="_396305264" class="fil2" x="3.93931" y="1.24492" width="0.00386997" height="0.0809777"/>
     <rect id="_396305360" class="fil2" x="3.95037" y="1.24492" width="0.00386997" height="0.0809777"/>
     <rect id="_396305000" class="fil2" x="3.96143" y="1.24492" width="0.00386997" height="0.0809777"/>
     <rect id="_396304064" class="fil2" x="3.9559" y="1.36361" width="0.00386997" height="0.132559"/>
     <rect id="_396303968" class="fil2" x="3.96696" y="1.36361" width="0.00386997" height="0.132559"/>
     <rect id="_396304688" class="fil2" x="3.97801" y="1.36361" width="0.00386997" height="0.132559"/>
     <rect id="_396304544" class="fil2" x="3.92273" y="1.36361" width="0.00386997" height="0.132559"/>
     <rect id="_396304424" class="fil2" x="3.93379" y="1.36361" width="0.00386997" height="0.132559"/>
     <rect id="_396304448" class="fil2" x="3.94484" y="1.36361" width="0.00386997" height="0.132559"/>
     <rect id="_396304208" class="fil2" x="3.98907" y="1.5603" width="0.00386997" height="0.348713"/>
     <rect id="_396336392" class="fil2" x="4.00013" y="1.5603" width="0.00386997" height="0.348713"/>
     <rect id="_396336272" class="fil2" x="3.9559" y="1.5603" width="0.00386997" height="0.348713"/>
     <rect id="_396335984" class="fil2" x="3.96696" y="1.5603" width="0.00386997" height="0.348713"/>
     <rect id="_396336128" class="fil2" x="3.97801" y="1.5603" width="0.00386997" height="0.348713"/>
     <rect id="_396336080" class="fil2" x="3.92273" y="1.5603" width="0.00386997" height="0.348713"/>
     <rect id="_396335816" class="fil2" x="3.93379" y="1.5603" width="0.00386997" height="0.348713"/>
     <rect id="_396335888" class="fil2" x="3.94484" y="1.5603" width="0.00386997" height="0.348713"/>
     <rect id="_396335648" class="fil2" x="3.90062" y="1.5603" width="0.00386997" height="0.348713"/>
     <rect id="_396334928" class="fil2" x="3.91167" y="1.5603" width="0.00386997" height="0.348713"/>
    </g>
    <g>
     <rect id="_396334712" class="fil11" x="4.02011" y="1.41575" width="0.170602" height="0.517582"/>
     <polygon id="_396334904" class="fil11" points="4.19072,1.41575 4.02011,1.41575 4.04065,1.38802 4.1689,1.38802 "/>
     <rect id="_396335048" class="fil2" x="4.11608" y="1.44532" width="0.0558662" height="0.0269574"/>
     <rect id="_396334688" class="fil2" x="4.03889" y="1.44532" width="0.0558662" height="0.0269574"/>
     <rect id="_396334808" class="fil2" x="4.11608" y="1.49299" width="0.0558662" height="0.0269574"/>
     <rect id="_396334208" class="fil2" x="4.03889" y="1.49299" width="0.0558662" height="0.0269574"/>
     <rect id="_396334376" class="fil2" x="4.11608" y="1.54066" width="0.0558662" height="0.0269574"/>
     <rect id="_396334544" class="fil2" x="4.03889" y="1.54066" width="0.0558662" height="0.0269574"/>
     <rect id="_396334520" class="fil2" x="4.11608" y="1.58833" width="0.0558662" height="0.0269574"/>
     <rect id="_396334088" class="fil2" x="4.03889" y="1.58833" width="0.0558662" height="0.0269574"/>
     <rect id="_396334136" class="fil2" x="4.11608" y="1.636" width="0.0558662" height="0.0269574"/>
     <rect id="_396333560" class="fil2" x="4.03889" y="1.636" width="0.0558662" height="0.0269574"/>
     <rect id="_396333392" class="fil2" x="4.11608" y="1.68366" width="0.0558662" height="0.0269574"/>
     <rect id="_396333440" class="fil2" x="4.03889" y="1.68366" width="0.0558662" height="0.0269574"/>
     <rect id="_396333848" class="fil2" x="4.11608" y="1.73133" width="0.0558662" height="0.0269574"/>
     <rect id="_396333680" class="fil2" x="4.03889" y="1.73133" width="0.0558662" height="0.0269574"/>
     <rect id="_396333224" class="fil2" x="4.11608" y="1.779" width="0.0558662" height="0.0269574"/>
     <rect id="_396332936" class="fil2" x="4.03889" y="1.779" width="0.0558662" height="0.0269574"/>
     <rect id="_396332672" class="fil2" x="4.11608" y="1.82667" width="0.0558662" height="0.0269574"/>
     <rect id="_396332504" class="fil2" x="4.03889" y="1.82667" width="0.0558662" height="0.0269574"/>
     <rect id="_396332984" class="fil2" x="4.11608" y="1.87434" width="0.0558662" height="0.0269574"/>
     <rect id="_396333080" class="fil2" x="4.03889" y="1.87434" width="0.0558662" height="0.0269574"/>
    </g>
    <g>
     <rect id="_396333032" class="fil10" x="3.67838" y="1.51033" width="0.0648736" height="0.117256"/>
     <rect id="_396331712" class="fil10" x="3.66145" y="1.6437" width="0.0987212" height="0.28963"/>
     <rect id="_396331832" class="fil10" x="3.6538" y="1.62759" width="0.114032" height="0.0161178"/>
     <rect id="_396331640" class="fil10" x="3.67153" y="1.49421" width="0.0785739" height="0.0161178"/>
     <rect id="_396331904" class="fil10" x="3.69248" y="1.42794" width="0.0366679" height="0.0662756"/>
     <rect id="_396331808" class="fil2" x="3.70134" y="1.43156" width="0.00282075" height="0.0590231"/>
     <rect id="_396331976" class="fil2" x="3.7094" y="1.43156" width="0.00282075" height="0.0590231"/>
     <rect id="_396331664" class="fil2" x="3.71746" y="1.43156" width="0.00282075" height="0.0590231"/>
     <rect id="_396331472" class="fil10" x="3.71343" y="1.51807" width="0.00282075" height="0.0966201"/>
     <rect id="_396331280" class="fil10" x="3.72149" y="1.51807" width="0.00282075" height="0.0966201"/>
     <rect id="_396331136" class="fil10" x="3.72955" y="1.51807" width="0.00282075" height="0.0966201"/>
     <rect id="_396331184" class="fil2" x="3.68926" y="1.51807" width="0.00282075" height="0.0966201"/>
     <rect id="_396330944" class="fil2" x="3.69731" y="1.51807" width="0.00282075" height="0.0966201"/>
     <rect id="_396331064" class="fil10" x="3.70537" y="1.51807" width="0.00282075" height="0.0966201"/>
     <rect id="_396330296" class="fil2" x="3.73761" y="1.66143" width="0.00282075" height="0.25417"/>
     <rect id="_396330080" class="fil2" x="3.74567" y="1.66143" width="0.00282075" height="0.25417"/>
     <rect id="_396330344" class="fil2" x="3.71343" y="1.66143" width="0.00282075" height="0.25417"/>
     <rect id="_396330800" class="fil2" x="3.72149" y="1.66143" width="0.00282075" height="0.25417"/>
     <rect id="_396330440" class="fil2" x="3.72955" y="1.66143" width="0.00282075" height="0.25417"/>
     <rect id="_396330464" class="fil2" x="3.68926" y="1.66143" width="0.00282075" height="0.25417"/>
     <rect id="_396329408" class="fil2" x="3.69731" y="1.66143" width="0.00282075" height="0.25417"/>
     <rect id="_396330008" class="fil2" x="3.70537" y="1.66143" width="0.00282075" height="0.25417"/>
     <rect id="_396329816" class="fil2" x="3.67314" y="1.66143" width="0.00282075" height="0.25417"/>
     <rect id="_396329696" class="fil2" x="3.6812" y="1.66143" width="0.00282075" height="0.25417"/>
    </g>
    <g>
     <rect id="_396329600" class="fil11" x="3.76024" y="1.55608" width="0.124349" height="0.377256"/>
     <polygon id="_396329672" class="fil11" points="3.88458,1.55608 3.76024,1.55608 3.7752,1.53587 3.86868,1.53587 "/>
     <rect id="_396328544" class="fil2" x="3.83018" y="1.57763" width="0.0407198" height="0.0196487"/>
     <rect id="_396329240" class="fil2" x="3.77392" y="1.57763" width="0.0407198" height="0.0196487"/>
     <rect id="_396328928" class="fil2" x="3.83018" y="1.61237" width="0.0407198" height="0.0196487"/>
     <rect id="_396328832" class="fil2" x="3.77392" y="1.61237" width="0.0407198" height="0.0196487"/>
     <rect id="_396328904" class="fil2" x="3.83018" y="1.64712" width="0.0407198" height="0.0196487"/>
     <rect id="_396328688" class="fil2" x="3.77392" y="1.64712" width="0.0407198" height="0.0196487"/>
     <rect id="_396328448" class="fil2" x="3.83018" y="1.68186" width="0.0407198" height="0.0196487"/>
     <rect id="_396328112" class="fil2" x="3.77392" y="1.68186" width="0.0407198" height="0.0196487"/>
     <rect id="_396328136" class="fil2" x="3.83018" y="1.71661" width="0.0407198" height="0.0196487"/>
     <rect id="_396328496" class="fil2" x="3.77392" y="1.71661" width="0.0407198" height="0.0196487"/>
     <rect id="_396327992" class="fil2" x="3.83018" y="1.75135" width="0.0407198" height="0.0196487"/>
     <rect id="_396327896" class="fil2" x="3.77392" y="1.75135" width="0.0407198" height="0.0196487"/>
     <rect id="_396327032" class="fil2" x="3.83018" y="1.7861" width="0.0407198" height="0.0196487"/>
     <rect id="_396327584" class="fil2" x="3.77392" y="1.7861" width="0.0407198" height="0.0196487"/>
     <rect id="_396327296" class="fil2" x="3.83018" y="1.82084" width="0.0407198" height="0.0196487"/>
     <rect id="_396327560" class="fil2" x="3.77392" y="1.82084" width="0.0407198" height="0.0196487"/>
     <rect id="_396327320" class="fil2" x="3.83018" y="1.85559" width="0.0407198" height="0.0196487"/>
     <rect id="_396327272" class="fil2" x="3.77392" y="1.85559" width="0.0407198" height="0.0196487"/>
     <rect id="_396327248" class="fil2" x="3.83018" y="1.89033" width="0.0407198" height="0.0196487"/>
     <rect id="_396326672" class="fil2" x="3.77392" y="1.89033" width="0.0407198" height="0.0196487"/>
    </g>
   </g>
   <rect id="_396326960" class="fil9" x="3.52217" y="1.28131" width="1.24353" height="0.0712461"/>
   <path id="_396326384" class="fil12" d="M3.71376 1.47346l0.0356457 0c0.0095,0 0.0172677,0.00776772 0.0172677,0.0172638l0 0.113882c0,0.0193031 -0.0157874,0.0350906 -0.0350906,0.0350906l0 0c-0.0193031,0 -0.0350906,-0.0157874 -0.0350906,-0.0350906l0 -0.113882c0,-0.00949606 0.00776772,-0.0172638 0.0172677,-0.0172638z"/>
   <rect id="_396326312" class="fil9" x="3.52217" y="1.00928" width="1.24353" height="0.0712461"/>
   <rect id="_396326624" class="fil9" x="3.52217" y="1.14529" width="1.24353" height="0.0712461"/>
   <rect id="_396325856" class="fil12" x="3.52109" y="1.91603" width="1.24569" height="0.0518138"/>
  </g>
  <path class="fil13" d="M4.22584 2.65856c0.333378,-0.0997165 0.329382,-0.483453 0.314795,-0.652772 -0.00527559,-0.061248 -0.0240906,-0.0996181 0.0226417,-0.157598 0.0490906,-0.0609016 0.169913,-0.00336614 0.169913,-0.0110512 0,0 -0.106413,-0.162748 -0.303705,-0.177591 -0.380224,-0.0286063 -0.419169,0.333598 -0.612307,0.595177 -0.0594449,0.0805118 -0.12711,0.166004 -0.171165,0.202504 0,0 -0.0705433,0.0798976 -0.00456299,0.203992 0.0018189,-0.0813858 0.58439,-0.00266142 0.58439,-0.00266142z"/>
  <g id="_396324296">
   <path id="_396325712" class="fil14" d="M3.77151 2.0537l-0.0300394 -0.00519685 -0.0363425 -0.0173504c-0.0130787,0.00921654 -0.0381181,-0.0199488 -0.0648189,-0.0268937 0,0 -0.0179921,0.00272835 0.00274803,0.0187638 0.0697638,0.035689 -0.0197244,0.00536614 -0.0293268,0.00783858 -0.0146378,0.00376772 0.00179921,0.0144528 0.00643307,0.0143307 0.000940945,0.000259843 0.0613465,0.0169055 0.0353346,0.0196339 -0.00829921,0.000874016 -0.0247205,-0.00458268 -0.0359173,-0.00559843 -0.0111969,-0.00101181 -0.00212992,0.0140787 0.00765748,0.0134724 0.00046063,-3.14961e-005 0.0507362,0.00383858 0.0301142,0.0107362 -0.00424409,0.00142126 -0.0281732,0.00204724 -0.0272677,0.00481496 0.000901575,0.00276772 0.00534646,0.00907087 0.0317244,0.00671654 0.0263858,-0.00235433 0.0595157,-0.0010748 0.0595157,-0.0010748l0.0349094 0.00787795 0.0152756 -0.0480709z"/>
   <path id="_396326000" class="fil15" d="M4.11621 1.95024c0,0 0.088874,0.00954331 0.0396457,0.0811378 0,0 -0.232398,0.122346 -0.249906,0.114724l-0.161764 -0.043626 0.0211378 -0.0541299c0,0 0.100866,0.0360079 0.155705,0.00573622 0,0 0.129083,-0.0923583 0.195181,-0.103843z"/>
   <path id="_396325544" class="fil16" d="M3.21746 2.9231c0,0 0.00420866,0.000468504 0.00790945,0.00104331 0.0244764,0.00379528 0.118543,0.0171457 0.133272,0.000913386 0,0 0.00360236,-0.00414567 0.0102047,-0.0120315 0.004,-0.0047874 0.00335433,-0.018063 0.00974803,-0.0316811 0.0075748,-0.016122 0.0226102,-0.033311 0.0322913,-0.0455866 -0.0168661,-0.0230394 0.00216929,0.000874016 -0.020189,-0.0308661l-0.0765669 0.048378c-0.0173465,0.0109606 -0.0770866,0.0591063 -0.0966693,0.0698307z"/>
   <path id="_396324704" class="fil17" d="M3.94391 2.41106c0.0817835,0.0223189 0.153846,0.0431575 0.153846,0.0431575 0,0 0.0534449,-0.00829134 0.0316654,-0.0858228l-0.147421 -0.0221142c-0.00508268,0.019437 -0.0157559,0.0438386 -0.0380906,0.0647795z"/>
   <path id="_396325088" class="fil18" d="M3.93439 2.68669l0.218362 0.0327559c0.199823,-0.0964016 0.0901299,-0.334028 0.0901299,-0.334028l-0.113465 -0.0170236c0.0217795,0.0775315 -0.0316654,0.0858228 -0.0316654,0.0858228 0,0 -0.072063,-0.0208386 -0.153846,-0.0431575 -0.0480787,-0.0131181 -0.0995197,-0.0267598 -0.141657,-0.0369803 -0.113811,-0.0276063 -0.182311,-0.0062874 -0.237622,0.025437 -0.055311,0.0317205 -0.250492,0.453756 -0.250492,0.453756l0.0644646 0.0280748c0.13915,-0.099185 0.163776,-0.207134 0.163776,-0.207134 0,0 0.0146299,-0.195799 0.120516,-0.171492 0.105886,0.024311 0.2715,0.183969 0.2715,0.183969z"/>
   <path id="_396325424" class="fil19" d="M3.70087 2.65927c0.00468898,0.000192913 0.0257008,-0.00376378 0.030315,-0.00307087l0.203205 0.0304843c0,0 -0.165614,-0.159657 -0.2715,-0.183969 -0.105886,-0.0243071 -0.120516,0.171492 -0.120516,0.171492 0.0261299,0.0381575 0.00538189,0.341504 0.00538189,0.341504l0.0762205 0.011437c0.0347362,-0.0567677 0.054937,-0.169488 0.0659331,-0.256673 0.00219685,-0.0194646 -0.00962598,-0.0438465 -0.0292047,-0.062185 -0.0170866,-0.0160079 0.0195276,-0.0414646 0.0401654,-0.0490197z"/>
   <path id="_396325280" class="fil16" d="M4.20231 1.81902c0,0 -0.00225984,0.0805866 0.0100709,0.0998189 0,0 -0.0681535,0.0655906 -0.0951929,-0.0142008l0.0106181 -0.0598465 -0.0425118 -0.00637795c0,0 -0.0307677,-0.0122244 -0.012063,-0.0355 0,0 0.00826772,-0.00799606 0.00111811,-0.0183031l-0.00972441 -0.0112402 0.0248189 -0.0277913c0,0 0.00805512,-0.0645354 0.0360039,-0.0733858 0,0 0.0595433,-0.00573622 0.0609764,0.0716339 0,0 0.0330512,-0.021122 0.0360276,-0.00111417 0.00283071,0.0190079 -0.0299567,0.0440669 -0.0201417,0.0763071z"/>
   <path id="_396325232" class="fil20" d="M4.12384 1.62494c-0.0207835,0.0204921 -0.0126772,0.0425748 -0.00730315,0.0523661 0.00271654,-0.00232677 0.0056811,-0.00409449 0.00890945,-0.00511417 0,0 0.0595433,-0.00573622 0.0609764,0.0716339 0,0 0.0330512,-0.021122 0.0360276,-0.00111417 0.00283071,0.0190079 -0.0299567,0.0440669 -0.0201417,0.0763071 0.051378,0.00880315 0.0741929,-0.0345197 0.0741929,-0.0345197 0.00505118,0.0170591 0.0280315,0.0123543 0.0280315,0.0123543 0.0409724,0.019748 0.00426378,0.167642 0.0930709,0.198165l0.00672441 -0.14624c-0.0150079,-0.102772 -0.0894882,-0.0916693 -0.0894882,-0.0916693 0.00627165,-0.0164449 -0.0246299,-0.0205394 -0.0246299,-0.0205394 0.011189,-0.0890591 -0.0695315,-0.114217 -0.0695315,-0.114217 -0.0747283,-0.0288701 -0.0968386,0.00258661 -0.0968386,0.00258661z"/>
   <path id="_396325016" class="fil21" d="M3.982 2.34627l0.261437 0.0392205c0,0 -0.011185,-0.0798701 0.000496063,-0.15776 0,0 0.119886,-0.22963 0.0509882,-0.281957 0,0 -0.0223031,-0.0250669 -0.0828425,-0.0269055 0,0 -0.0640866,0.0410669 -0.0948858,-0.0142362 0,0 -0.00983858,0.0331496 -0.0286024,0.0520512 -0.175118,0.107984 -0.0427795,0.150118 -0.106591,0.389587z"/>
   <path id="_396324464" class="fil22" d="M3.24939 2.97502c0.0315669,-0.0187165 0.057878,-0.0112283 0.057878,-0.0112283l-0.0369409 0.0603858 0.00932677 0.0115709 0.0891969 -0.122724c-0.00660236,0.00788583 -0.0102047,0.0120315 -0.0102047,0.0120315 -0.0125748,0.0138622 -0.0829606,0.00615354 -0.118524,0.00124016l-0.0205669 -0.00308661 -0.0017874 -0.000267717c-0.0254449,0.0134173 -0.0645866,0.0364882 -0.0552244,0.0470118 0.0136299,0.0153228 0.0552795,0.0237835 0.0868465,0.00506693z"/>
   <path id="_396324128" class="fil14" d="M3.74855 2.18969c-0.0437677,-0.0190512 -0.07,-0.047878 -0.109098,-0.0232283 0,0 -0.0454291,0.0279528 -0.0446693,0.0410315 0.000755906,0.0130827 0.0240669,0.0150551 0.024626,0.0113268 0.00262205,-0.0174567 0.0560236,-0.0357205 0.0746457,0.0253268 0.00858661,0.0282008 0.129567,0.0190276 0.154299,0.013252l0.00588976 -0.0560157c-0.0415118,0.0104094 -0.0619252,0.0073622 -0.105693,-0.0116929z"/>
   <polygon id="_396324608" class="fil16" points="3.61397,3.09946 3.62398,3.02715 3.54776,3.01571 3.54219,3.07743 3.49072,3.12196 3.4737,3.13719 3.52652,3.14015 "/>
   <path id="_396323984" class="fil22" d="M3.58065 3.14639l-0.011752 0.0783307 0.0183583 0.00275591 0.0267087 -0.12802 -0.0874488 0.0406929 -0.052815 -0.00296457 -0.067122 0.0600551c0.0213386,0.00693307 0.0469252,0.014437 0.0657717,0.00123622 0.0291969,-0.0204567 0.0735039,-0.0380236 0.108299,-0.0520866z"/>
   <path id="_396324320" class="fil23" d="M4.20945 1.95127c0,0 0.115386,-0.0180118 0.0774685,0.0889921 0,0 -0.251913,0.232992 -0.276587,0.229291l-0.218594 -0.000338583 0.00745276 -0.072126c0,0 0.140083,0.00798425 0.199055,-0.0487638 0,0 0.131673,-0.160213 0.211205,-0.197055z"/>
   <path id="_396324632" class="fil14" d="M3.74754 2.05243c0,0 -0.0420827,-0.0428976 -0.0617913,-0.0455 -0.0197047,-0.00260236 0.0230354,0.0325827 0.0230354,0.0325827l0.0387559 0.0129173z"/>
  </g>
  <path class="fil24" d="M4.22048 2.62635c0,0 -0.577205,-0.0465118 -0.579024,0.034874 -0.00162205,0.0726181 0.114717,0.184839 0.205894,0.187929l0.595933 0c0.325421,-0.161035 0.46848,-0.702705 0.289913,-1.01201 0,0 -0.141496,-0.079874 -0.193016,0.0507598 -0.0174213,0.0441811 -0.00727165,0.0510394 -0.00187795,0.098248 0.017185,0.150445 0.0258307,0.537102 -0.317823,0.640201z"/>
  <g id="_396322664">
   <polygon id="_396323432" class="fil25" points="1.9218,2.63364 3.61805,2.63364 3.63852,2.8008 1.89338,2.8008 "/>
   <g>
    <path id="_396323192" class="fil26" d="M1.94707 2.28263l0.0598307 0.0163386 -0.170173 0.878461c-0.00156299,0.00812992 -0.00790551,0.0134173 -0.0144094,0.0116417l-3.93701e-006 0c-0.0065,-0.00177559 -0.0105157,-0.00987795 -0.00926378,-0.0181063l0.13402 -0.888335z"/>
    <path id="_396323336" class="fil26" d="M3.59278 2.28263l-0.0598307 0.0163386 0.170173 0.878461c0.00156299,0.00812992 0.00790551,0.0134173 0.0144094,0.0116417l3.93701e-006 0c0.0065,-0.00177559 0.0105157,-0.00987795 0.00926378,-0.0181063l-0.13402 -0.888335z"/>
   </g>
   <rect id="_396323312" class="fil26" x="1.80583" y="2.25548" width="1.92818" height="0.0685792"/>
   <rect id="_396322712" class="fil27" x="2.02184" y="2.32406" width="1.49616" height="0.0900102"/>
  </g>
  <g id="_396322880">
   <path id="_396322952" class="fil28" d="M3.7976 3.24732l0.124563 -0.362276 -0.0337323 0c-0.00476378,0 -0.00924409,-0.00173228 -0.013122,-0.00476378l-0.113579 0.367039 0.0358701 0z"/>
   <polygon id="_396322928" class="fil28" points="3.91794,3.24732 4.0425,2.88504 3.99417,2.88504 3.88207,3.24732 "/>
   <polygon id="_396322448" class="fil28" points="4.41434,3.24732 4.30224,2.88504 4.25391,2.88504 4.37847,3.24732 "/>
   <path id="_396322808" class="fil28" d="M4.5289 3.24732l-0.113583 -0.367035c-0.00387795,0.00302756 -0.00835827,0.00475984 -0.0131181,0.00475984l-0.0337323 0 0.124563 0.362276 0.0358701 0z"/>
  </g>
  <path class="fil29" d="M4.44328 2.84915l-0.595933 0 0 3.93701e-006c0,0.0211654 0.017315,0.0384843 0.0384803,0.0384843l0.518972 0c0.0211654,0 0.0384803,-0.0173189 0.0384803,-0.0384843l0 -3.93701e-006z"/>
  <g id="_396321872">
   <path id="_396322256" class="fil30" d="M3.07886 1.84304l0.21589 -0.0461732c0,0 0.0180984,-0.00811417 0.0193465,0.0642677l0.0268346 0.298874c0,0 0.00624016,0.0299528 -0.0430551,0.0230866l-0.195925 0c0,0 -0.0124803,0.00312205 -0.0137283,-0.0274528 -0.00124409,-0.0305748 -0.0249606,-0.293264 -0.0249606,-0.293264 0,0 -0.00623622,-0.0187205 0.0155984,-0.0193386z"/>
   <path id="_396321752" class="fil31" d="M3.1163 1.9672l0.104827 -0.0187205 0.0112323 0.164728 -0.0430551 0 -0.00311811 0.112941 -3.93701e-006 0c0.0073622,0 0.0118583,0.000149606 0.0118583,0.000149606 0.120425,0.00132677 0.111689,0.0291772 0.111689,0.0291772l-0.249587 0c0.00682677,-0.0134409 0.0307835,-0.0207756 0.0568504,-0.024752l0.0230157 -0.117516 -0.0124764 0 -0.0112323 -0.146008z"/>
  </g>
  <path class="fil31" d="M3.65458 2.25548l-0.213992 0 0 0c0,-0.0201693 0.0164921,-0.0366654 0.0366614,-0.0366654l0.140665 0c0.0201693,0 0.0366654,0.0164961 0.0366654,0.0366654l0 0z"/>
  <g id="_396320312">
   <g>
    <rect id="_396322064" class="fil32" x="2.69318" y="2.17861" width="0.236806" height="0.0768665"/>
    <rect id="_396321776" class="fil2" x="2.77815" y="2.19723" width="0.095187" height="0.0396357"/>
    <path id="_396321992" class="fil33" d="M2.75651 2.21747c0,-0.0064252 -0.00261024,-0.012252 -0.00683071,-0.0164724l-1.5748e-005 -1.1811e-005c-0.00422047,-0.00422047 -0.0100433,-0.00683465 -0.0164724,-0.00683465 -0.00643701,0 -0.0122677,0.00261417 -0.0164882,0.00683465l0 1.1811e-005c-0.00421654,0.00422047 -0.00683071,0.0100472 -0.00683071,0.0164724 0,0.00643701 0.00261417,0.0122717 0.00683071,0.0164882 0.00422047,0.00422047 0.0100512,0.00683465 0.0164882,0.00683465 0.00642913,0 0.012252,-0.00261417 0.0164724,-0.00683465l1.5748e-005 0c0.00422047,-0.00421654 0.00683071,-0.0100512 0.00683071,-0.0164882zm-0.012315 -0.011c0.00280709,0.00281102 0.00454331,0.00670079 0.00454331,0.011 0,0.00429528 -0.00174409,0.00818504 -0.00455118,0.0109961l7.87402e-006 7.87402e-006c-0.00281102,0.00280709 -0.00670079,0.00454331 -0.0110039,0.00454331 -0.00429134,0 -0.00818504,-0.00174409 -0.0109921,-0.00455118 -0.00281102,-0.00281102 -0.00455118,-0.00670079 -0.00455118,-0.0109961 0,-0.00429921 0.00173622,-0.00818898 0.00454331,-0.011l7.87402e-006 7.87402e-006c0.00280709,-0.00281102 0.00670079,-0.00455118 0.0109921,-0.00455118 0.00430315,0 0.00819291,0.00173622 0.0110039,0.00454331z"/>
    <rect id="_396321608" class="fil34" transform="matrix(-1.02676E-015 -0.0387684 -0.0614798 1.62826E-015 2.91122 2.25548)" width="1.98264" height="0.128472"/>
   </g>
   <g>
    <rect id="_396321344" class="fil35" x="2.73611" y="2.10175" width="0.236806" height="0.0768665"/>
    <rect id="_396321296" class="fil2" x="2.82108" y="2.12036" width="0.095187" height="0.0396357"/>
    <path id="_396321272" class="fil33" d="M2.79944 2.13975c0,0.0064252 -0.00261024,0.012252 -0.00683071,0.0164724l-1.5748e-005 1.5748e-005c-0.00422047,0.00421654 -0.0100472,0.00683071 -0.0164724,0.00683071 -0.00643701,0 -0.0122677,-0.00261417 -0.0164882,-0.00683071l0 -1.5748e-005c-0.00421654,-0.00422047 -0.00683071,-0.0100472 -0.00683071,-0.0164724 0,-0.00643701 0.00261417,-0.0122677 0.00683071,-0.0164882 0.00422047,-0.00422047 0.0100512,-0.00683071 0.0164882,-0.00683071 0.0064252,0 0.012252,0.00261024 0.0164724,0.00683071l1.5748e-005 0c0.00422047,0.00422047 0.00683071,0.0100512 0.00683071,0.0164882zm-0.012315 0.011c0.00280709,-0.00281102 0.00454331,-0.00670079 0.00454331,-0.011 0,-0.00429528 -0.00174409,-0.00818504 -0.00455118,-0.0109961l7.87402e-006 -7.87402e-006c-0.00281102,-0.00280709 -0.00670472,-0.00454331 -0.0110039,-0.00454331 -0.00429528,0 -0.00818504,0.00174409 -0.0109921,0.00455118 -0.00281102,0.00281102 -0.00455118,0.00670079 -0.00455118,0.0109961 0,0.00429921 0.00173622,0.00818898 0.00454331,0.011l7.87402e-006 -7.87402e-006c0.00280709,0.00281102 0.00669685,0.00455118 0.0109921,0.00455118 0.00429921,0 0.00819291,-0.00173622 0.0110039,-0.00454331z"/>
    <rect id="_396321248" class="fil36" transform="matrix(-1.02676E-015 0.0387684 -0.0614798 -1.62826E-015 2.95415 2.10174)" width="1.98264" height="0.128472"/>
   </g>
   <g>
    <rect id="_396321392" class="fil37" x="2.69318" y="2.02488" width="0.236806" height="0.0768665"/>
    <rect id="_396320144" class="fil2" x="2.77815" y="2.04349" width="0.095187" height="0.0396357"/>
    <path id="_396320840" class="fil33" d="M2.75651 2.06374c0,-0.00642913 -0.00261024,-0.012252 -0.00683071,-0.0164764l-1.5748e-005 -1.1811e-005c-0.00422047,-0.00422047 -0.0100433,-0.00683465 -0.0164724,-0.00683465 -0.00643701,0 -0.0122677,0.00261417 -0.0164882,0.00683465l0 1.1811e-005c-0.00421654,0.00422441 -0.00683071,0.0100472 -0.00683071,0.0164764 0,0.00643701 0.00261417,0.0122677 0.00683071,0.0164843 0.00422047,0.00422047 0.0100512,0.00683465 0.0164882,0.00683465 0.00642913,0 0.012252,-0.00261417 0.0164724,-0.00683465l1.5748e-005 0c0.00422047,-0.00421654 0.00683071,-0.0100472 0.00683071,-0.0164843zm-0.012315 -0.0110039c0.00280709,0.00281102 0.00454331,0.00670079 0.00454331,0.0110039 0,0.00429134 -0.00174409,0.00818504 -0.00455118,0.0109921l7.87402e-006 7.87402e-006c-0.00281102,0.00280709 -0.00670079,0.00454331 -0.0110039,0.00454331 -0.00429134,0 -0.00818504,-0.00174016 -0.0109921,-0.00455118 -0.00281102,-0.00280709 -0.00455118,-0.00670079 -0.00455118,-0.0109921 0,-0.00430315 0.00173622,-0.00819291 0.00454331,-0.0110039l7.87402e-006 7.87402e-006c0.00280709,-0.00280709 0.00670079,-0.00455118 0.0109921,-0.00455118 0.00430315,0 0.00819291,0.00173622 0.0110039,0.00454331z"/>
    <rect id="_396320336" class="fil38" transform="matrix(-1.02676E-015 -0.0387684 -0.0614798 1.62826E-015 2.91122 2.10174)" width="1.98264" height="0.128472"/>
   </g>
  </g>
  <g id="_396319352">
   <polygon id="_396320096" class="fil39" points="2.55346,2.21434 2.60203,2.11113 2.60759,2.11356 2.55903,2.21677 "/>
   <polygon id="_396320456" class="fil39" points="2.56208,2.21434 2.56208,2.03822 2.55346,2.03821 2.55346,2.21434 "/>
   <ellipse id="_396320528" class="fil37" cx="2.55777" cy="2.03821" rx="0.0175375" ry="0.0169105"/>
   <circle id="_396320408" class="fil35" transform="matrix(1.07738 0.172126 -0.178508 1.03886 2.60481 2.11235)" r="0.0160591"/>
   <polygon id="_396319760" class="fil39" points="2.55902,2.21155 2.50326,2.09306 2.49688,2.09585 2.55264,2.21434 "/>
   <circle id="_396319736" class="fil32" transform="matrix(-1.23689 0.19761 0.204937 1.19267 2.50007 2.09446)" r="0.0160591"/>
   <path id="_396319376" class="fil31" d="M2.58448 2.25548c0,0 0.0311614,-0.0104961 0.0281929,-0.0515079 0.000559055,-0.037315 -0.108378,-0.037315 -0.107823,0 -0.00296457,0.0410118 0.0281929,0.0515079 0.0281929,0.0515079l0.051437 0z"/>
  </g>
  <g id="_396319112">
   <path id="_396319832" class="fil31" d="M2.44244 1.88033l-0.422126 0c-0.00964961,0 -0.0167677,0.00792913 -0.0175433,0.0175472l-0.0216772 0.267311c-0.000779528,0.00961811 0.00789764,0.0175472 0.0175472,0.0175472l0.424189 0c0.00964961,0 0.0168425,-0.00792126 0.0175472,-0.0175472l0.0196102 -0.267311c0.000704724,-0.00962598 -0.0078937,-0.0175472 -0.0175472,-0.0175472z"/>
   <path id="_396319952" class="fil31" d="M2.24789 2.24389l-0.133146 0c-0.00311811,0 -0.00566929,0.00255118 -0.00566929,0.00567323l0 7.87402e-006c0,0.00312205 0.00255118,0.00567323 0.00566929,0.00567323l0.133146 0 0 -0.0113543z"/>
   <path id="_396318824" class="fil30" d="M2.45586 1.88033l-0.422126 0c-0.00964961,0 -0.0167677,0.00792913 -0.0175472,0.0175472l-0.0216732 0.267311c-0.000779528,0.00961811 0.00789764,0.0175472 0.0175472,0.0175472l0.424189 0c0.00964961,0 0.0168425,-0.00792126 0.0175472,-0.0175472l0.0196102 -0.267311c0.000704724,-0.00962598 -0.0078937,-0.0175472 -0.0175472,-0.0175472z"/>
   <polygon id="_396318584" class="fil31" points="2.27111,2.01399 2.19783,2.01502 2.2448,2.25498 2.35007,2.25601 "/>
   <polygon id="_396318560" class="fil31" points="2.27937,2.01399 2.20609,2.01502 2.25305,2.25498 2.35833,2.25601 "/>
  </g>
  <path class="fil31" d="M2.06337 2.25548l-0.213992 0 0 -3.93701e-006c0,-0.0100827 0.00824409,-0.0183307 0.0183307,-0.0183307l0.177331 0c0.0100866,0 0.0183307,0.00824803 0.0183307,0.0183307l0 3.93701e-006z"/>
  <g id="_396316040">
   <rect id="_396319040" class="fil40" transform="matrix(-0.595014 0.159433 0.159433 0.595014 3.35682 1.30433)" width="0.26389" height="0.265626"/>
   <g>
    <rect id="_396318272" class="fil2" transform="matrix(-0.353384 0.0946888 0.084529 0.315467 3.35025 1.35214)" width="0.342012" height="0.0338543" rx="0.0544331" ry="0.0544331"/>
    <rect id="_396318008" class="fil2" transform="matrix(-0.353384 0.0946888 0.084529 0.315467 3.35784 1.38048)" width="0.342012" height="0.0338543" rx="0.0544331" ry="0.0544331"/>
    <rect id="_396318368" class="fil2" transform="matrix(-0.353384 0.0946888 0.084529 0.315467 3.36544 1.40882)" width="0.342012" height="0.0338543" rx="0.0544331" ry="0.0544331"/>
    <rect id="_396317888" class="fil2" transform="matrix(-0.353384 0.0946888 0.084529 0.315467 3.37303 1.43717)" width="0.342012" height="0.0338543" rx="0.0544331" ry="0.0544331"/>
   </g>
   <circle id="_396317984" class="fil2" transform="matrix(-0.595014 0.159433 0.159433 0.595014 3.28355 1.34495)" r="0.0180118"/>
   <rect id="_396318056" class="fil41" x="2.98626" y="1.5097" width="0.162557" height="0.163627"/>
   <g>
    <rect id="_396317480" class="fil2" x="3.00498" y="1.55418" width="0.125125" height="0.0110567" rx="0.0544331" ry="0.0544331"/>
    <rect id="_396317456" class="fil2" x="3.00498" y="1.58352" width="0.125125" height="0.0110567" rx="0.0544331" ry="0.0544331"/>
    <rect id="_396317408" class="fil2" x="3.00498" y="1.61286" width="0.125125" height="0.0110567" rx="0.0544331" ry="0.0544331"/>
    <rect id="_396317528" class="fil2" x="3.00498" y="1.64221" width="0.125125" height="0.0110567" rx="0.0544331" ry="0.0544331"/>
   </g>
   <circle id="_396317768" class="fil42" cx="3.06754" cy="1.52997" r="0.0110953"/>
   <rect id="_396317720" class="fil43" transform="matrix(-0.595014 -0.159433 -0.159433 0.595014 3.11696 1.26616)" width="0.26389" height="0.265626"/>
   <g>
    <rect id="_396316520" class="fil2" transform="matrix(-0.353384 -0.0946888 -0.084529 0.315467 3.08737 1.30428)" width="0.342012" height="0.0338543" rx="0.0544331" ry="0.0544331"/>
    <rect id="_396316616" class="fil2" transform="matrix(-0.353384 -0.0946888 -0.084529 0.315467 3.07977 1.33262)" width="0.342012" height="0.0338543" rx="0.0544331" ry="0.0544331"/>
    <rect id="_396316928" class="fil2" transform="matrix(-0.353384 -0.0946888 -0.084529 0.315467 3.07218 1.36097)" width="0.342012" height="0.0338543" rx="0.0544331" ry="0.0544331"/>
    <rect id="_396316832" class="fil2" transform="matrix(-0.353384 -0.0946888 -0.084529 0.315467 3.06459 1.38931)" width="0.342012" height="0.0338543" rx="0.0544331" ry="0.0544331"/>
   </g>
   <circle id="_396316592" class="fil44" transform="matrix(-0.595014 -0.159433 -0.159433 0.595014 3.0332 1.26471)" r="0.0180118"/>
   <rect id="_396316448" class="fil45" transform="matrix(-0.595014 0.159433 0.159433 0.595014 3.30133 1.04869)" width="0.26389" height="0.265626"/>
   <g>
    <rect id="_396315824" class="fil2" transform="matrix(-0.353384 0.0946888 0.084529 0.315467 3.29476 1.0965)" width="0.342012" height="0.0338543" rx="0.0544331" ry="0.0544331"/>
    <rect id="_396316208" class="fil2" transform="matrix(-0.353384 0.0946888 0.084529 0.315467 3.30236 1.12484)" width="0.342012" height="0.0338543" rx="0.0544331" ry="0.0544331"/>
    <rect id="_396315728" class="fil2" transform="matrix(-0.353384 0.0946888 0.084529 0.315467 3.30995 1.15319)" width="0.342012" height="0.0338543" rx="0.0544331" ry="0.0544331"/>
    <rect id="_396315680" class="fil2" transform="matrix(-0.353384 0.0946888 0.084529 0.315467 3.31755 1.18153)" width="0.342012" height="0.0338543" rx="0.0544331" ry="0.0544331"/>
   </g>
   <circle id="_396316232" class="fil46" transform="matrix(-0.595014 0.159433 0.159433 0.595014 3.22807 1.08931)" r="0.0180118"/>
  </g>
 </g>
</svg>
